<?xml version="1.0" ?><!DOCTYPE svg  PUBLIC '-//W3C//DTD SVG 1.1//EN'  'http://www.w3.org/Graphics/SVG/1.1/DTD/svg11.dtd'><svg enable-background="new 0 0 64 64" id="Layer_1" version="1.1" viewBox="0 0 64 64" xml:space="preserve" xmlns="http://www.w3.org/2000/svg" xmlns:xlink="http://www.w3.org/1999/xlink"><circle cx="24.1" cy="16.9" fill="#7ABE90" r="5.9"/><circle cx="38.2" cy="51" fill="#F47A3D" r="5.9"/><line fill="none" stroke="#2C3E50" stroke-linecap="round" stroke-linejoin="round" stroke-miterlimit="10" stroke-width="2" x1="20" x2="42" y1="51" y2="51"/><line fill="none" stroke="#2C3E50" stroke-linecap="round" stroke-linejoin="round" stroke-miterlimit="10" stroke-width="2" x1="43" x2="21" y1="17" y2="17"/><line fill="none" stroke="#2C3E50" stroke-linecap="round" stroke-linejoin="round" stroke-miterlimit="10" stroke-width="2" x1="42.2" x2="38.2" y1="51" y2="47"/><line fill="none" stroke="#2C3E50" stroke-linecap="round" stroke-linejoin="round" stroke-miterlimit="10" stroke-width="2" x1="42.3" x2="38.2" y1="51.4" y2="55.5"/><line fill="none" stroke="#2C3E50" stroke-linecap="round" stroke-linejoin="round" stroke-miterlimit="10" stroke-width="2" x1="20.3" x2="24.3" y1="16.9" y2="21"/><line fill="none" stroke="#2C3E50" stroke-linecap="round" stroke-linejoin="round" stroke-miterlimit="10" stroke-width="2" x1="20.3" x2="24.1" y1="16.9" y2="13"/><path d="M61.8,40.3c0-2.2-0.4-5.2-1.7-5.6c-1.3-0.4-6.1-1.5-6.1-1.5v0L50.5,37l-3.6-3.8c0,0-4.7,1.2-6,1.5  c-1.3,0.4-1.6,3.4-1.6,5.6" fill="#3B97D3"/><path d="M25.8,47.3c0-2.2-0.4-5.2-1.7-5.6c-1.3-0.4-6.1-1.5-6.1-1.5v0L14.5,44l-3.6-3.8c0,0-4.7,1.2-6,1.5  c-1.3,0.4-1.6,3.4-1.6,5.6" fill="#3B97D3"/><path d="  M61.8,40.3c0-2.2-0.4-5.2-1.7-5.6c-1.3-0.4-6.1-1.5-6.1-1.5v0L50.5,37l-3.6-3.8c0,0-4.7,1.2-6,1.5c-1.3,0.4-1.6,3.4-1.6,5.6" fill="none" stroke="#2C3E50" stroke-linecap="round" stroke-linejoin="round" stroke-miterlimit="10" stroke-width="2"/><path d="M55.2,20.7c-0.6-2.9-3.4-3.4-4.8-3.4c-1.6,0-4.3,0.4-4.8,3.8c-0.3,2.7,0.9,6.1,1.8,7.3  c1,1.3,1.9,1.9,3.2,1.9c1.2,0,2-0.6,3-2.1C54.7,26.8,55.8,23.1,55.2,20.7z" fill="#D4C8BC"/><path d="M19.2,27.7c-0.6-2.9-3.4-3.4-4.8-3.4c-1.6,0-4.3,0.4-4.8,3.8c-0.3,2.7,0.9,6.1,1.8,7.3  c1,1.3,1.9,1.9,3.2,1.9c1.2,0,2-0.6,3-2.1C18.7,33.8,19.8,30.1,19.2,27.7z" fill="#D4C8BC"/><path d="  M55.2,20.7c-0.6-2.9-3.4-3.4-4.8-3.4c-1.6,0-4.3,0.4-4.8,3.8c-0.3,2.7,0.9,6.1,1.8,7.3c1,1.3,1.9,1.9,3.2,1.9c1.2,0,2-0.6,3-2.1  C54.7,26.8,55.8,23.1,55.2,20.7z" fill="none" stroke="#2C3E50" stroke-linecap="round" stroke-linejoin="round" stroke-miterlimit="10" stroke-width="2"/><path d="  M25.8,47.3c0-2.2-0.4-5.2-1.7-5.6c-1.3-0.4-6.1-1.5-6.1-1.5v0L14.5,44l-3.6-3.8c0,0-4.7,1.2-6,1.5c-1.3,0.4-1.6,3.4-1.6,5.6" fill="none" stroke="#2C3E50" stroke-linecap="round" stroke-linejoin="round" stroke-miterlimit="10" stroke-width="2"/><path d="  M19.2,27.7c-0.6-2.9-3.4-3.4-4.8-3.4c-1.6,0-4.3,0.4-4.8,3.8c-0.3,2.7,0.9,6.1,1.8,7.3c1,1.3,1.9,1.9,3.2,1.9c1.2,0,2-0.6,3-2.1  C18.7,33.8,19.8,30.1,19.2,27.7z" fill="none" stroke="#2C3E50" stroke-linecap="round" stroke-linejoin="round" stroke-miterlimit="10" stroke-width="2"/></svg>