<?xml version="1.0" ?><svg enable-background="new 0 0 500 500" id="Layer_1" version="1.1" viewBox="0 0 500 500" xml:space="preserve" xmlns="http://www.w3.org/2000/svg" xmlns:xlink="http://www.w3.org/1999/xlink"><g><path d="M468.797,342c9.312,0,17.203-8.396,17.203-17.708v-12.74c0-9.312-7.892-16.552-17.203-16.552H235.05   c-15.383,0-30.139-6.254-41.032-17.115L75.689,150.995c-1.063-1.22-4.281-4.026-4.281-4.026c-6.295-5.14-14.407-8.145-23.227-7.882   c-18.246,0.545-33.204,15.33-33.945,33.569c-0.814,20.024,15.178,36.511,35.021,36.511c5.516,0,10.732-1.279,15.375-3.549   l110.007,118.555c5.84,5.829,12.797,10.271,20.362,13.154V376h-11c-5.523,0-10,4.477-10,10s4.477,10,10,10h21   c5.523,0,10-4.875,10-10.398v-44.466c0.231,0.003,0.46,0.864,0.691,0.864H442v43.602c0,5.523,4.477,10.398,10,10.398h21   c5.523,0,10-4.477,10-10s-4.477-10-10-10h-11v-34H468.797z" fill="#474747"/><path d="M115.054,159.541c13.779,7.901,41.868,9.164,49.768-4.616c7.901-13.779-7.378-37.382-21.157-45.283   c-13.779-7.901-31.354-3.135-39.255,10.644C96.509,134.066,101.275,151.64,115.054,159.541z" fill="#474747"/><path d="M150.956,208.683l16.229,15.961c17.931,15.695,32.055,24.378,34.432,25.801   c6.53,2.281,13.249-0.419,16.086-6.522l19.792-42.253c1.378-4.667-0.813-9.763-5.357-11.881   c-5.004-2.333-10.955-0.169-13.289,4.837L216,200.737c-0.014-0.022-0.028-0.043-0.042-0.065l-11.295,24.296   c-0.847,1.822-2.652,2.893-4.538,2.893c-0.706,0-1.422-0.15-2.104-0.467c-2.504-1.165-3.59-4.138-2.426-6.642l13.905-29.91   c-7.47-11.283-14.064-20.864-16.95-23.75c-7.782-7.782-24.902-9.193-37.203,3.108C143.045,182.503,142.736,200.454,150.956,208.683   z" fill="#474747"/><path d="M236.302,229.928l-8.536,18.224c-3.831,8.241-11.898,13.083-20.568,13.083   c-0.629,0-1.262-0.035-1.896-0.086l11.461,11.273c3.95,3.954,9.311,6.178,14.9,6.178l192.253-0.178c2.698,0,5.21-0.768,7.355-2.079   c4.095-3.054,12.318-29.465,12.318-29.465c1.855-4.4-0.207-9.47-4.607-11.326s-9.47,0.059-11.326,4.459l-5.494,13.16   c-0.86,2.06-2.985,3.292-5.2,3.005c-23.193-3.004-166.302-18.969-166.302-18.969C245.06,236.731,239.918,234.124,236.302,229.928z" fill="#474747"/></g></svg>