<?xml version="1.0" ?><!DOCTYPE svg  PUBLIC '-//W3C//DTD SVG 1.1//EN'  'http://www.w3.org/Graphics/SVG/1.1/DTD/svg11.dtd'><svg enable-background="new 0 0 256 256" height="256px" id="Layer_1" version="1.1" viewBox="0 0 256 256" width="256px" xml:space="preserve" xmlns="http://www.w3.org/2000/svg" xmlns:xlink="http://www.w3.org/1999/xlink"><g><g><path d="M68.651,83.216l1.889,19.889c0.371,3.918-4.188,6.301-7.198,3.836l-0.007,0.01l-28.97-23.734     c-2.852-1.019-15.882,3.222-25.13-6.035c-3.707-3.714-6.008-8.83-6.008-14.439V20.475C3.227,9.206,12.433,0,23.701,0h68.755     c11.27,0,20.476,9.204,20.476,20.475v42.267c0,11.266-9.208,20.475-20.476,20.475H68.651L68.651,83.216z M60.736,93.366     l-1.38-14.584c0-2.449,1.985-4.434,4.434-4.434h28.666c6.375,0,11.607-5.233,11.607-11.607V20.475     c0-6.377-5.23-11.606-11.607-11.606H23.701c-6.376,0-11.606,5.23-11.606,11.606v42.267c0,6.395,5.211,11.607,11.606,11.607     h12.244v0.003c0.987,0,1.981,0.327,2.805,1.001L60.736,93.366L60.736,93.366z" fill="#2B78C2"/><path d="M187.826,73.201l5.608,18.128l8.867-18.55c0.695-1.456,2.086-2.355,3.585-2.493v-0.002     c48.318-4.496,56.243-60.517-9.297-60.517c-53.851,0-64.293,49.698-12.106,60.403c1.64,0.335,2.881,1.535,3.341,3.03H187.826     L187.826,73.201z M188.321,104.723l-8.188-26.466C120.588,64.134,132.74,0.899,196.59,0.899c75.685,0,69.846,70.547,12.62,77.902     l-12.593,26.346C194.851,109.067,189.487,108.517,188.321,104.723L188.321,104.723z" fill="#2B78C2"/><path clip-rule="evenodd" d="M184.835,175.091c-6.855,3.441-14.722,6.88-21.56,10.319     c0.897-17.298,1.617-34.743,5.605-52.025c6.603-28.616,45.562-27.667,51.15,0c3.57,17.673,5.041,34.353,5.605,52.025     c-6.839-3.439-14.703-6.878-21.56-10.319v-6.52c4.222-4.592,7.38-11.857,9.299-18.853c-3.677-2.912-7.07-6.114-10.103-9.681     c-2.121-2.496-4.064-5.171-5.805-8.05c1.19,5.328,4.248,10.04,8.288,15.471c-5.539-3.412-10.63-8.611-14.034-15.633     c-1.708,2.432-3.562,4.667-5.548,6.716c-3.209,3.31-6.769,6.135-10.637,8.52c1.719,7.384,4.892,15.513,9.297,20.744V175.091     L184.835,175.091z M227.372,189.044c9.425,3.882,15.872,6.132,16.591,17.748L247.009,256c-35.035,0-70.07,0-105.105,0     l3.046-49.208c0.719-11.619,7.166-13.866,16.591-17.748l12.282-5.836c3.146,10.849,11.638,23.495,20.634,30.948     c8.996-7.453,17.489-20.1,20.635-30.948L227.372,189.044L227.372,189.044z M194.456,221.795c2.197,0,3.979,1.781,3.979,3.979     c0,2.196-1.781,3.978-3.979,3.978s-3.979-1.781-3.979-3.978C190.478,223.576,192.259,221.795,194.456,221.795L194.456,221.795z      M194.456,235.719c2.197,0,3.979,1.781,3.979,3.979c0,2.196-1.781,3.979-3.979,3.979s-3.979-1.782-3.979-3.979     C190.478,237.5,192.259,235.719,194.456,235.719L194.456,235.719z" fill="#3B4552" fill-rule="evenodd"/><path clip-rule="evenodd" d="M68.435,113.7c-12.763,0-23.11,9.991-23.11,22.325     c0,11.924,8.587,37.661,23.11,37.661c14.525,0,23.116-25.737,23.116-37.661C91.55,123.691,81.2,113.7,68.435,113.7L68.435,113.7z      M117.535,194.518c-1.171-2.371-3.033-4.208-5.24-5.39c0.013-1.049-21.807-9.393-23.886-10.199     c-2.588,10.334-8.014,32.096-12.802,41.651l-3.22-26.536l-3.812-2.524l-3.811,2.524l-3.22,26.536     c-4.788-9.556-10.214-31.317-12.802-41.651c-2.078,0.807-23.898,9.15-23.885,10.199c-2.208,1.182-4.069,3.019-5.241,5.39     C12.77,208.311,10.391,241.491,9.011,256c39.71,0,79.42,0,119.129,0C126.762,241.491,124.382,208.311,117.535,194.518     L117.535,194.518z" fill="#3B4552" fill-rule="evenodd"/></g></g></svg>