<?xml version="1.0" ?><!DOCTYPE svg  PUBLIC '-//W3C//DTD SVG 1.1//EN'  'http://www.w3.org/Graphics/SVG/1.1/DTD/svg11.dtd'><svg enable-background="new 0 0 128 128" id="Layer_1" version="1.1" viewBox="0 0 128 128" xml:space="preserve" xmlns="http://www.w3.org/2000/svg" xmlns:xlink="http://www.w3.org/1999/xlink"><g><circle cx="64" cy="64" fill="#84DBFF" r="63.5"/><rect fill="#E6E9EE" height="19.7" width="17.5" x="26" y="78.9"/><ellipse cx="34.9" cy="72.8" fill="#F9B54C" rx="6.4" ry="6.5"/><polygon fill="#F1543F" points="37.6,79.3 32.2,79.3 33.3,82.5 36.6,82.5  "/><path d="M30.5,101.8c1.4,0.2,2.9,0.3,4.4,0.3c1.5,0,3-0.1,4.4-0.3l-2.7-19.4h-3.3L30.5,101.8z" fill="#FF7058"/><path d="M58.4,90.2l-3.3-10.1L42.5,74c0,4.4-0.3,15.2-5.5,28.1C45.8,101.5,53.6,96.9,58.4,90.2z" fill="#324A5E"/><path d="M32.8,102.1c-5.2-12.9-5.5-23.8-5.5-28.1l-12.7,6.1l-3.3,10.1C16.3,96.9,24,101.5,32.8,102.1z" fill="#324A5E"/><path d="M41.2,71.5c0,0,0.8,4.5-6.3,7.9c0,0,5.3,0.4,6.8,5.4C41.8,84.9,44.7,74.1,41.2,71.5z" fill="#FFFFFF"/><path d="M28.6,71.5c0,0-0.8,4.5,6.3,7.9c0,0-5.3,0.4-6.8,5.4C28,84.9,25.2,74.1,28.6,71.5z" fill="#FFFFFF"/><path d="M45.4,59.4c0,6.9-4.7,15.4-10.5,15.4c-5.8,0-10.5-8.5-10.5-15.4s4.7-9.6,10.5-9.6   C40.7,49.9,45.4,52.6,45.4,59.4z" fill="#FFD05B"/><path d="M31.3,48.4c0,0,8.5-3.4,12.8,4.3c4.6,8.2-1.2,17.1-2.4,17.8c0,0,0.3-1.4,1.2-4.1c0,0,2.1-6.1-4.2-7   c0,0-6-0.8-6.5-2.1c0,0,0.4,2.2,3.2,2.6c0,0-6.2-0.1-8.1-2.3c0,0-2.6,8.7,1.2,13.5c0,0-6.7-5.3-5.9-13.6   C22.6,57.5,22.3,46.2,31.3,48.4z" fill="#324A5E"/><path d="M99.6,51.5c0,0.5-0.2,1.1-0.5,1.5c-1.5-0.8-3.3-1.2-5.2-1.2c-1.9,0-3.7,0.4-5.2,1.2c-0.3-0.5-0.5-1-0.5-1.5   c0-2.1,2.5-3.8,5.7-3.8S99.6,49.4,99.6,51.5z" fill="#2B3B4E"/><path d="M103.6,62.5c0,1.3-0.1,2.7-0.4,4.1c-0.3-0.2-0.6-0.2-1-0.1v0c0.2-3.5-1.9-4-1.9-4c-2.2-0.8-3.1-2.9-3.4-4.5   c-0.9,1-2.4,2.1-4.9,3.1c-6.8,2.8-6.5,5.4-6.5,5.4h0l-0.1-0.1v0c-0.3-0.1-0.7-0.1-1,0c-0.3-1.4-0.4-2.8-0.4-4.1   c0-7.7,4.4-10.7,9.7-10.7C99.2,51.8,103.6,54.8,103.6,62.5z" fill="#324A5E"/><path d="M100.2,75.2c0,0,0.8,4.4-6.2,7.9h-0.1c-7.1-3.4-6.2-7.9-6.2-7.9c0,0,0,0,0,0c0.1-0.5,0.2-0.9,0.4-1.3   c1.5,2.7,3.6,4.6,5.9,4.6c2.3,0,4.3-1.9,5.9-4.7C99.9,74.3,100.1,74.8,100.2,75.2C100.2,75.3,100.2,75.2,100.2,75.2z" fill="#F9B54C"/><path d="M116.5,91.1c-5.8,5.8-13.8,9.4-22.6,9.4c-8.8,0-16.8-3.6-22.6-9.4l2.3-7.2L87.8,77c0.4,1.6,1.8,4,6.1,6.1   h0.1c4.2-2.1,5.6-4.5,6.1-6.1l14.1,6.8L116.5,91.1z" fill="#FF7058"/><path d="M103.3,66.7c-0.3-0.2-0.6-0.2-1-0.1c0,0,0,0,0,0c0.2-3.5-1.9-4-1.9-4c-2.2-0.8-3.1-2.9-3.4-4.5   c-0.9,1-2.4,2.1-4.9,3.1c-6.8,2.8-6.5,5.4-6.5,5.4c0,0,0,0,0,0l-0.1-0.1c0,0,0,0,0,0c-0.4-0.1-0.7-0.1-1,0.1   c-0.7,0.5-0.7,2-0.1,3.2c0.6,1.2,1.6,1.8,2.3,1.4c1.6,4.1,4.2,7.3,7.1,7.3c2.9,0,5.5-3.2,7.1-7.3c0.7,0.4,1.7-0.2,2.3-1.4   C104,68.6,103.9,67.2,103.3,66.7z" fill="#FFD05B"/><path d="M81.5,16.7h-28c-1.9,0-3.5,1.5-3.5,3.5v17.3c0,1.9,1.5,3.5,3.5,3.5h17.2l11.8,10.6l-3.8-10.6h2.8   c1.9,0,3.5-1.5,3.5-3.5V20.2C84.9,18.3,83.4,16.7,81.5,16.7z" fill="#E6E9EE"/><path d="M46.5,11.5h28c1.9,0,3.5,1.5,3.5,3.5v17.3c0,1.9-1.5,3.5-3.5,3.5H57.3L45.5,46.3l3.8-10.6h-2.8   c-1.9,0-3.5-1.5-3.5-3.5V15C43.1,13.1,44.6,11.5,46.5,11.5z" fill="#FFFFFF"/><g><path d="M100.2,75.2c0,0,0.8,4.5-6.3,7.9c0,0,5.3,0.4,6.8,5.4C100.8,88.7,103.6,77.9,100.2,75.2z" fill="#FFFFFF"/><path d="M87.6,75.2C84.1,77.9,87,88.7,87,88.5c1.6-4.9,6.8-5.4,6.8-5.4C86.8,79.7,87.6,75.2,87.6,75.2z" fill="#FFFFFF"/></g><path d="M108.2,97.1c0.5-2.3,0.2-4.2,0.2-4.5l1.6,3.5C109.4,96.4,108.8,96.8,108.2,97.1z" fill="#F1543F"/><path d="M79.6,97.1c-0.6-0.3-1.2-0.6-1.8-1l1.6-3.5C79.3,92.9,79.1,94.8,79.6,97.1z" fill="#F1543F"/></g></svg>