<?xml version="1.0" ?><!DOCTYPE svg  PUBLIC '-//W3C//DTD SVG 1.1//EN'  'http://www.w3.org/Graphics/SVG/1.1/DTD/svg11.dtd'><svg enable-background="new 0 0 128 128" id="Layer_1" version="1.1" viewBox="0 0 128 128" xml:space="preserve" xmlns="http://www.w3.org/2000/svg" xmlns:xlink="http://www.w3.org/1999/xlink"><g><circle cx="64" cy="64" fill="#324A5E" r="63.5"/><path d="M111.6,78c-5.5,5.3-13.4,8.6-22.2,8.6c-8.8,0-16.8-3.3-22.2-8.6l0,0c0.9-2.9,3-5.3,5.7-6.6l8.6-4.1   c0.3-1.1,1.5-2.6,1.6-2.6c-0.6-0.9-1.1-2-1.6-3.1c-0.7,0-1.4-0.6-1.8-1.4c-0.4-0.8-0.4-1.8,0-2.3c-1.4-3.6-2.3-9.1,2.2-13.2   l-2.2,0.5c0,0,2.7-5,8.1-3.2c0,0-0.5-0.8-2.2-1.3c0,0,2.4-1,3.8,0.6c0,0,0.8-0.7,0-1.3c0,0,4.2,0.1,7.9,3.6   c4.9,4.6,3.7,10.6,2,14.6c0.2,0.5,0.1,1.3-0.2,1.9c-0.4,0.7-1,1.2-1.6,1.4c-0.3,0.5-1.4,2.4-1.8,3.1c0.1,0,1.4,1.6,1.6,2.7l8.6,4.1   C108.6,72.7,110.6,75.1,111.6,78L111.6,78z" fill="#FFFFFF"/><path d="M60.9,78c-5.5,5.3-13.4,8.6-22.2,8.6c-8.8,0-16.8-3.3-22.2-8.6l0,0c0.9-2.9,3-5.3,5.7-6.6l8.6-4.1   c0.3-1.1,1.5-2.6,1.6-2.6c-0.6-0.9-1.1-2-1.6-3.1c-0.7,0-1.4-0.6-1.8-1.4c-0.4-0.8-0.4-1.8,0-2.3c-1.4-3.6-2.3-9.1,2.2-13.2   L29,45.1c0,0,2.7-5,8.1-3.2c0,0-0.5-0.8-2.2-1.3c0,0,2.4-1,3.8,0.6c0,0,0.8-0.7,0-1.3c0,0,4.2,0.1,7.9,3.6c4.9,4.6,3.7,10.6,2,14.6   c0.2,0.5,0.1,1.3-0.2,1.9c-0.4,0.7-1,1.2-1.6,1.4c-0.3,0.5-1.4,2.4-1.8,3.1c0.1,0,1.4,1.6,1.6,2.7l8.6,4.1   C57.9,72.7,60,75.1,60.9,78L60.9,78z" fill="#FFFFFF"/><path d="M90.9,31.2c-0.1,0.1-0.1,0.2-0.2,0.2c-0.2,0.2-0.5,0.3-0.8,0.4l-6.4,1.1c-0.8,0.1-1.6-0.4-1.8-1.2   c-0.1-0.8,0.4-1.6,1.2-1.8l2.8-0.5c-15.8-10.3-36.5-8.7-50.6,4.4c-1,0.9-1.9,1.9-2.8,2.9c-0.3,0.3-0.7,0.5-1.1,0.5l0,0   c-1.3,0-2-1.6-1.1-2.6c1-1.1,2-2.1,3-3.1c7.8-7.2,17.9-11.4,28.4-11.8c9.2-0.4,18.2,2.2,25.8,7.1L87,24.3c-0.1-0.8,0.4-1.6,1.2-1.8   c0.8-0.2,1.6,0.4,1.8,1.2l1.2,6.3C91.2,30.4,91.1,30.9,90.9,31.2z" fill="#84DBFF"/><path d="M95.3,90.9c1.3,0,2,1.6,1.1,2.6c-0.9,1-1.9,2-2.9,3c-7.8,7.2-17.9,11.4-28.4,11.8   c-9.4,0.4-18.6-2.3-26.4-7.5l0.5,2.5c0.1,0.5-0.1,1.1-0.5,1.4c-0.2,0.2-0.5,0.3-0.8,0.4c-0.8,0.1-1.6-0.4-1.8-1.2L35,97.7   c-0.1-0.4,0-0.8,0.2-1.2c0.2-0.3,0.6-0.6,1-0.6l6.4-1.1c0.8-0.1,1.6,0.4,1.8,1.2c0.1,0.8-0.4,1.6-1.2,1.8l-2.8,0.5   c15.8,10.7,36.8,9.1,51-4.1c1-0.9,1.9-1.8,2.7-2.8C94.5,91.1,94.9,90.9,95.3,90.9L95.3,90.9z" fill="#FF7058"/></g></svg>