<?xml version="1.0" ?><!DOCTYPE svg  PUBLIC '-//W3C//DTD SVG 1.1//EN'  'http://www.w3.org/Graphics/SVG/1.1/DTD/svg11.dtd'><svg enable-background="new 0 0 256 256" height="256px" id="Layer_1" version="1.1" viewBox="0 0 256 256" width="256px" xml:space="preserve" xmlns="http://www.w3.org/2000/svg" xmlns:xlink="http://www.w3.org/1999/xlink"><g id="_x33_8"><path d="M229.095,119.637c-5.066,0.783-9.797,1.485-14.501,2.355c-1.518,0.281-3.251,0.875-4.326,1.906   c11.606-15.5,7.01-30.951,7.01-30.951c-11.32-3.176-15.592-14.085-15.592-14.085c-8.052,18.913-23.644,18.087-23.644,18.087   c-3.143,12.022,3.343,21.938,6.675,26.042c-0.875-0.508-1.939-0.832-2.9-0.999c-5.617-0.983-11.271-1.766-16.758-2.603   c-1.021-0.34-0.14-1.091-0.065-1.167c5.52-5.66,7.221-12.551,7.037-20.258c-0.103-4.186,0-8.511,0.94-12.562   c2.949-12.708,13.928-20.447,27.171-19.658c12.071,0.718,22.089,10.261,23.66,22.694c0.373,2.927,0.41,5.914,0.394,8.868   c-0.043,9.689,0.513,12.319,5.903,19.691C230.613,117.687,231.201,119.221,229.095,119.637z" fill="#43575E"/><path d="M251.235,193.883c0.142,4.085-1.805,5.913-6.222,5.913c-15.817,0.024-31.657,0.024-47.474,0.024   c-7.79-0.095-15.555-0.214-23.345-0.309l-0.142-0.475c-1.14-4.299-3.277-8.122-5.201-11.281c-1.354-2.209-2.969-4.797-4.702-7.243   c-4.655-6.65-10.497-11.732-17.028-14.938c0.071-0.475,0.166-0.974,0.261-1.449c0.594-3.064,1.045-6.127,1.662-9.167   c3.111-1.377,5.747-4.75,5.747-7.956v-5.011c0-0.475-0.048-0.95-0.119-1.401c0.119-0.095,0.237-0.19,0.356-0.285   c1.449-1.069,3.396-1.971,5.985-2.802c6.056-1.924,12.278-3.277,18.429-4.868c-0.095,0.071-0.166,0.166-0.261,0.237   c0.831-0.309,1.734,0.095,2.066,0.902c2.636,6.412,9.428,10.734,16.909,10.734c7.457,0,14.249-4.299,16.885-10.734   c0.356-0.831,1.306-1.211,2.137-0.879c0.142,0.071,0.261,0.166,0.38,0.261c5.795,1.567,11.637,2.945,17.313,4.821   c2.589,0.879,4.512,1.805,5.937,2.874c2.897,2.209,4.204,7.671,5.011,10.996c1.045,4.251,1.544,8.621,2.327,12.943   C249.905,174.385,250.902,184.122,251.235,193.883z" fill="#43575E"/><path d="M147.07,138.265c-0.003-0.061-0.006-0.122-0.01-0.183c-0.576-9.597-6.03-15.498-15.018-16.388   c-0.028-0.009-0.054-0.019-0.083-0.028c0.05,0.016-0.1-0.055-0.137-0.062c-0.342-0.058-0.703-0.032-1.054-0.014   c-0.005,0-0.01-0.001-0.015-0.001c-0.426-0.019-0.842-0.028-1.252-0.028c-0.351,0-0.684,0.024-1.026,0.038   c-0.139-0.001-0.278,0-0.417,0c-0.106,0-0.638-0.099-0.725,0.025c0,0-0.016,0.037-0.004,0.039   c-9.147,0.8-14.61,6.741-15.112,16.603c-1.711,0.393-2.969,1.919-2.969,3.738v5.006c0,2.656,2.78,3.836,3.836,3.836h0.41   c1.693,6.194,4.893,11.141,9.282,14.332c2.134,1.551,4.075,2.274,6.11,2.274c2.36,0,4.849-1.004,7.611-3.071   c3.811-2.851,7.135-7.882,8.964-13.536h0.74c1.656,0,3.836-2.413,3.836-3.836v-5.006   C150.039,140.185,148.781,138.658,147.07,138.265z M148.529,147.009c0,0.657-1.55,2.326-2.326,2.326h-1.854l-0.164,0.535   c-1.697,5.573-4.91,10.546-8.592,13.301c-2.491,1.864-4.684,2.77-6.706,2.77c-1.699,0-3.36-0.631-5.222-1.985   c-4.233-3.079-7.296-7.938-8.858-14.053l-0.145-0.569h-1.578c-0.345,0-2.326-0.642-2.326-2.326v-5.006   c0-1.247,0.975-2.268,2.221-2.324l0.354-0.012c0.044,1.273-0.078,3.908,1.597,4.266c0.445,0.095,2.198-0.447,2.215-1.084   l0.009-0.342c-0.244-8.542,3.899-8.542,7.371-4.983c3.166,3.246,7.131,3.181,10.235,0c3.472-3.559,7.615-3.559,7.371,4.983   c0,0,0.009,0.335,0.009,0.342c0.021,0.791,1.617,1.15,2.148,0.981c1.444-0.459,1.93-2.807,1.78-4.108   c1.302-0.23,2.46,1.025,2.46,2.281V147.009z" fill="#F05874"/><path d="M164.798,190.245c-1.451-2.369-2.925-4.73-4.523-7.001c-4.757-6.763-11.192-12.293-19.1-14.977   c-0.152-0.05-0.311-0.085-0.542-0.147c-2.997,8.117-11.552,15.889-11.552,15.889s-3.845-2.05-11.552-15.889   c-0.231,0.062-0.39,0.097-0.542,0.147c-7.909,2.684-14.343,8.214-19.1,14.977c-1.598,2.272-3.072,4.633-4.523,7.001   c-1.914,3.122-3.726,6.442-4.668,10.004v0.393l6.788,0.052h33.598h33.598l6.788-0.052v-0.393   C168.524,196.687,166.712,193.367,164.798,190.245z" fill="#F05874"/><path d="M96.306,131.622c-0.723-2.067-2.273-4.478-4.202-5.545c-5.718-3.203-12.021-5.787-18.049-8.645   c-2.032-0.999-2.618-0.585-3.272,1.447c-0.723,2.273-1.309,4.684-1.757,6.992c-0.241,1.137-0.723,2.549-1.343,4.064   c-0.103,0.207-0.172,0.413-0.241,0.551l-0.034,0.034c-2.79,6.407-6.751,13.261-12.365,17.98c-3.41-2.273-5.511-5.649-7.612-8.887   c-2.067-3.203-3.927-6.544-5.339-10.058c-1.343-3.41-1.481-7.026-2.79-10.437c-0.654-1.756-2.342-2.308-4.237-1.584   c-1.068,0.413-1.963,1.102-2.893,1.688c-1.86,1.205-4.305,1.825-6.372,2.755c-2.618,1.206-5.167,2.48-7.681,3.892   c-2.067,1.171-3.754,3.686-4.547,5.924c-7.474,21.803-9.92,44.191-8.37,66.993c0.034,0.654,0.275,1.274,0.448,1.998h15.017   c0.448-13.02,0.344-26.04,4.099-38.646c0.276,0.034,0.551,0.034,0.827,0.034c0.62,12.848,1.24,25.661,1.826,38.405h55.076   c0.62-12.951,1.205-25.695,1.825-38.405c0.31-0.034,0.585-0.034,0.896-0.034c2.377,8.404,3.238,16.981,3.617,25.626   c0.413-0.689,0.827-1.378,1.206-2.032c1.378-2.239,2.997-4.856,4.822-7.44c2.79-3.961,5.924-7.406,9.403-10.264   C102.988,155.733,100.37,143.574,96.306,131.622z" fill="#43575E"/><path d="M78.742,83.963c-0.315-0.762-0.726-1.73-0.735-1.727c-0.177-1.009-0.287-2.018-0.397-3.027   c-0.066-0.515-0.088-1.05-0.088-1.565c0-1.359,0.088-2.697-0.022-4.036c-0.221-2.697-0.816-5.106-1.853-7.227   c-2.096-4.406-5.913-7.453-11.319-9.018c-0.64-0.185-1.28-0.35-1.964-0.494c-1.787-0.391-3.817-0.124-5.428-0.803   c-0.838-0.35-1.655-0.597-2.449-0.721c-2.67-0.453-5.053,0.309-7.347,1.483c-0.838,0.432-1.677,0.906-2.493,1.4   c-0.905,0.556-1.831,1.174-2.846,1.421c-0.132,0.041-0.265,0.062-0.397,0.103c-5.538,1.503-9.84,6.3-10.017,11.777   c-0.058,2.016,0.138,4.026,0.291,6.033c0.099,1.291-0.087,2.655,0.359,3.898c0.177,0.493,0.9,1.053,0.371,1.576   c-0.174,0.172-0.41,0.266-0.619,0.394c-0.688,0.421-1.09,1.677-1.137,2.438c-0.069,1.102,0.409,2.153,1.088,2.997   c0.221,0.268,2.56,3.5,3.972,4.653c0.927,0.763,0.955,2.044,1.234,3.127c0.329,1.276,0.741,2.532,1.236,3.753   c0.993,2.449,2.325,4.752,3.928,6.853c6.465,8.483,20.563,8.833,26.896-0.576c1.389-2.063,2.526-4.288,3.368-6.63   c0.416-1.156,0.76-2.338,1.035-3.535c0.214-0.932,0.51-2.199,1.077-2.988c0.612-0.852,1.676-1.26,2.335-2.077   c1.473-1.824,3.016-4.184,2.275-6.6C79.069,84.761,78.921,84.395,78.742,83.963z M75.051,90.156   c-0.014,0.025-0.028,0.05-0.042,0.074c-0.477,0.851-1.054,1.651-1.759,2.328c-0.444,0.426-1.032,0.7-1.431,1.172   c-0.569,0.673-0.563,1.708-0.751,2.532c-0.241,1.055-0.55,2.096-0.919,3.114c-0.735,2.027-1.727,3.947-2.931,5.735   c-5.516,8.195-17.828,7.906-23.476,0.494c-1.382-1.814-2.535-3.798-3.396-5.91c-0.431-1.057-0.789-2.143-1.075-3.248   c-0.157-0.606-0.214-1.246-0.443-1.832c-0.263-0.674-0.737-1.047-1.232-1.543c-1.077-1.08-1.947-2.342-2.9-3.527   c-0.659-0.82-1.017-1.922-0.906-2.974c0.16-1.504,1.96-1.847,2.083-3.328c0.174-2.085-1.924-6.325-0.007-8.054   c1.273-1.148,3.436,0.697,4.668,1.184c2.224,0.88,4.533,1.245,6.907,1.407c5.534,0.377,11.015-0.901,16.224-2.666   c1.527-0.517,3.107-0.834,4.68-1.172c1.141-0.245,2.403-1.008,3.601-0.707c2.46,0.619,2.485,3.772,2.452,5.797   c-0.021,1.26-0.32,2.522-0.171,3.784c0.185,1.568,1.402,1.93,1.91,3.24C76.665,87.422,75.694,89.011,75.051,90.156z" fill="#43575E"/></g></svg>