<?xml version="1.0" ?><svg id="Layer_1" style="enable-background:new 0 0 413.144 226.305;" version="1.1" viewBox="0 0 413.144 226.305" xml:space="preserve" xmlns="http://www.w3.org/2000/svg" xmlns:xlink="http://www.w3.org/1999/xlink"><g><g><ellipse cx="357.751" cy="76.17" rx="22.494" ry="22.496" transform="matrix(0.2595 -0.9657 0.9657 0.2595 191.3427 401.8931)"/><path d="M194.585,172.866c2.52,5.83,9.289,8.515,15.121,5.995c14.989-6.47,29.273-8.738,42.276-8.747    c21.535-0.008,39.465,6.356,49.478,10.551c1.449,0.605,2.952,0.892,4.429,0.892c2.296,0,4.531-0.695,6.416-1.959    c2.198-0.846,4.52-2.151,6.971-4.027c16.677-14.902,24.298-25.697,32.593-45.305c5.952-14.294-0.23-25.975-8.027-30.048    c-7.799-4.072-18.512,2.347-22.969,11.696c-4.048,6.873-8.864,15.607-14.618,23.953c5.04-2.392,9.474-5.643,13.349-9.791    c6.373-6.902,8.643-14.154,8.664-14.226c1.223-4.308,5.175-7.299,9.621-7.299c0.903,0,1.806,0.124,2.684,0.369    c2.574,0.717,4.716,2.39,6.029,4.716c1.313,2.326,1.643,5.022,0.927,7.598l-0.004,0.019l-0.032,0.103    c-0.774,2.592-3.954,11.783-12.285,21.277c-4.935,5.676-14.438,14.218-29.672,18.886c-5.811,1.781-12.451,3.001-19.995,3.279    c-0.105,0.004-0.214,0.005-0.323,0.006c-0.026,0-0.052,0.001-0.078,0.001c-5.383,0-9.769-4.216-9.985-9.597    c-0.029-0.713,0.021-1.411,0.137-2.088c-7.15-1.216-14.962-2.002-23.307-2.005c-15.694-0.007-33.28,2.794-51.401,10.63    C194.75,160.266,192.065,167.034,194.585,172.866z"/><path d="M285.138,158.806c0.108,0,0.218-0.002,0.328-0.007c0.35-0.013,0.681-0.048,1.026-0.064    c5.77-0.283,11.058-1.125,15.872-2.396c14.5-3.829,24.773-11.474,31.337-19.023c8.951-10.197,11.678-19.896,11.899-20.617    c1.183-4.257-1.308-8.666-5.565-9.85c-4.243-1.181-8.637,1.289-9.837,5.521h-0.001c0,0,0,0-0.002,0.008    c-0.104,0.399-2.486,7.869-9.132,15.065c-4.013,4.296-9.407,8.594-17.037,11.564c-5.246,2.043-11.539,3.465-19.206,3.805    c-3.852,0.155-6.956,3.009-7.567,6.666c-0.089,0.535-0.127,1.087-0.105,1.65C277.322,155.432,280.867,158.806,285.138,158.806z"/><path d="M407.598,86.418c-5.735-3.841-13.5-2.306-17.341,3.432L321.41,192.655c-5.666-1.676-13.527-3.929-22.159-6.192    c-8.514-2.232-17.773-4.474-26.524-6.19c-8.799-1.706-16.909-2.941-24.085-2.969c-7.218,0.021-14.674,1.311-22.204,3.067    c-22.409,5.314-45.4,15.329-45.754,15.458c-6.337,2.738-9.254,10.097-6.517,16.433c2.04,4.721,6.645,7.545,11.482,7.546    c1.443,0,2.904-0.269,4.327-0.796v7.293h12v-12.063c3.803-1.436,8.293-3.056,13.088-4.631c5.949-1.957,12.349-3.835,18.306-5.183    c5.938-1.358,11.496-2.142,15.272-2.123c4.075-0.027,11.338,0.923,19.275,2.499c11.982,2.347,25.844,5.972,36.595,8.997    c5.381,1.512,9.995,2.876,13.254,3.856c1.63,0.49,2.919,0.886,3.798,1.157c0.519,0.16,0.866,0.269,1.079,0.335v7.155h12v-9.409    c0.9-0.75,1.71-1.627,2.386-2.637l73.999-110.499C414.87,98.022,413.335,90.26,407.598,86.418z"/><path d="M299.393,64.769c7.717-6.868,12.393-15.853,12.393-25.685C311.786,17.499,289.254,0,261.458,0    s-50.328,17.499-50.328,39.084c0,21.586,22.532,39.085,50.328,39.085c7.664,0,34.725,14.694,41.226,12.313    C291.977,81.381,294.838,68.822,299.393,64.769z"/></g><g><path d="M114.233,130.04l20.236-23.304l-7.715-1.976l-16.006,21.49C112.206,127.183,113.415,128.483,114.233,130.04z"/><ellipse cx="71.304" cy="53.383" rx="22.495" ry="22.494" transform="matrix(0.9986 -0.0537 0.0537 0.9986 -2.7655 3.9087)"/><path d="M76.936,125.296c-1.036-0.549-1.954-1.164-2.803-1.82c-3.062-2.37-5.005-5.408-6.409-8.993    c-1.749-4.53-2.27-9.761-2.257-13.671c0-1.833,0.103-3.374,0.202-4.413c0.051-0.519,0.098-0.916,0.13-1.162    c0.017-0.122,0.03-0.208,0.037-0.253l0.002-0.009c0.722-4.359-2.227-8.478-6.584-9.202c-1.836-0.304-3.626,0.049-5.141,0.878    c-2.082,1.139-3.642,3.183-4.06,5.706c-0.051,0.316-0.584,3.595-0.586,8.455c0.043,6.878,0.955,17.1,6.884,26.54    c2.965,4.685,7.32,9.073,13.162,12.12c3.51,1.841,7.512,3.174,11.974,3.951c2.938,0.511,6.07,0.788,9.412,0.788    c0.021,0,0.043,0,0.064-0.001c2.128,0,4.356-0.124,6.659-0.338c1.669-0.154,3.371-0.349,5.138-0.62    c1.359-0.209,2.747-0.45,4.167-0.73c4.334-0.853,7.156-5.058,6.304-9.392c-0.099-0.502-0.247-0.982-0.431-1.441    c-0.653-1.628-1.811-2.953-3.25-3.832c-1.65-1.011-3.665-1.436-5.713-1.033c-4.948,0.973-9.222,1.388-12.874,1.386    c-6.26-0.007-10.633-1.19-13.842-2.825C77.061,125.354,76.995,125.326,76.936,125.296z"/><path d="M99.442,149.383c-0.525-0.188-1.043-0.339-1.564-0.509l2.908-3.349c-1.616,0.206-3.201,0.368-4.751,0.478l-1.421,1.908    c-4.326-1.144-8.469-1.749-12.226-2.033c-0.04-0.103-0.085-0.201-0.125-0.304c-5.032-0.76-9.615-2.201-13.679-4.333    c-5.671-2.957-10.487-7.392-13.922-12.82c-4.775-7.602-7.126-16.626-7.194-27.598c0.002-4.661,0.469-7.901,0.613-8.784    c0.802-4.844,4.927-8.355,9.818-8.374c0.013,0,0.025-0.002,0.039-0.002c0.549,0,1.102,0.045,1.646,0.135    c5.439,0.905,9.13,6.065,8.23,11.505l-0.032,0.212c-0.028,0.215-0.073,0.59-0.12,1.08c-0.088,0.918-0.193,2.403-0.193,4.216    c-0.009,2.765,0.255,8.112,2.124,12.951c1.649,4.213,3.888,7.068,7.146,9.103c0.368,0.23,0.74,0.456,1.135,0.666    c0.809,0.422,1.669,0.788,2.574,1.109c1.297,0.124,2.625,0.203,4.002,0.203c0.028,0,0.056,0,0.085,0    c5.64-0.002,11.968-1.008,19.22-3.17c0.537-0.16,1.044-0.374,1.519-0.63l1.799,2.229l3.595,2.332l-1.455-4.059l-1.788-2.215    c1.785-2.004,2.529-4.852,1.706-7.611c-1.263-4.234-5.719-6.642-9.953-5.377c-0.622,0.186-1.222,0.352-1.818,0.515l-5.476-6.786    l-2.14,1.728l4.675,5.793c-3.917,0.888-7.203,1.252-9.886,1.251c-4.452-0.011-7.22-0.924-9.16-2.03    c-0.146-0.084-0.274-0.18-0.413-0.269c-0.265-3.133-0.498-6.111-0.743-8.848c-0.018-10.358-6.944-20.751-15.736-20.415    c-8.791,0.337-19.383,8.239-20.135,23.703c-0.911,21.272,1.346,34.291,10.023,54.904c4.376,8.52,9.968,11.552,15.609,12.073    c1.51,0.401,3.126,0.499,4.766,0.204c0.389-0.064,3.453-0.529,7.654-0.526c4.567-0.014,10.445,0.576,15.615,2.449    c5.222,1.91,9.546,4.769,12.733,9.688c8.751,13.564,9.285,26.062,9.274,28.576c0,0.199-0.002,0.339-0.004,0.405    c-0.001,0.022-0.002,0.036-0.002,0.043c-0.001,0.001-0.001,0.001-0.001,0.001h0.001c-0.297,6.029,4.328,11.18,10.365,11.521    c0.211,0.012,0.423,0.018,0.632,0.018c5.792,0.001,10.642-4.526,10.974-10.379c0.011-0.192,0.037-0.745,0.037-1.609    c-0.011-5.204-0.944-22.031-12.768-40.472C117.014,158.136,107.956,152.4,99.442,149.383z"/><path d="M60,173.83c-52.625,0-25.867-39.822-29.534-57.822S0,82.83,0,97.497c0,14.666,17.667,126.177,17.667,126.177h2.834v2.631    h11.5v-2.631h59v2.631h11.5v-2.631h2.833C105.334,223.674,114,173.83,60,173.83z"/><path d="M159.131,6.184c-21.264,0-38.5,13.386-38.5,29.898c0,7.521,3.577,14.394,9.48,19.648    c3.485,3.101,5.674,12.708-2.517,19.671c4.973,1.82,25.674-9.42,31.537-9.42c21.264,0,38.5-13.387,38.5-29.899    S180.395,6.184,159.131,6.184z"/></g></g></svg>